<?xml version="1.0" standalone="no"?><!DOCTYPE svg PUBLIC "-//W3C//DTD SVG 1.1//EN" "http://www.w3.org/Graphics/SVG/1.1/DTD/svg11.dtd">
<svg t="1575280698799" class="icon" viewBox="0 0 1024 1024" version="1.1" xmlns="http://www.w3.org/2000/svg" p-id="2033" width="256" height="256">
  <path d="M147.407016 488.370766c7.54948-12.710425 18.59646-19.321551 30.965665-18.809722 8.103962 0.085305 15.226918 2.857713 175.301494 73.106267 0.17061 0 46.789717 20.302557 46.789717 20.302558 16.933015 6.696432 27.212251 25.420849 26.14594 46.576455-1.108963 20.643777-12.198595 36.809048-28.705086 41.244901-0.298567 0.17061-66.495141 22.605789-66.495141 22.605789-148.984943 51.012308-153.889973 52.462491-161.823324 51.993314-12.369205-0.426524-23.245575-8.231919-29.686093-21.283564-4.691767-9.383535-7.8907-25.250239-9.852711-44.230571-5.544816-57.452825 1.236921-144.037261 17.359539-171.505427z m360.413046 513.407317c-4.777072 11.430852-15.866704 19.065637-31.136275 21.539478-43.974657 6.696432-181.699358-38.344536-210.361792-68.670414a35.316213 35.316213 0 0 1-9.980669-19.918686 27.510818 27.510818 0 0 1 1.919359-14.075302c3.028323-7.677438 8.103962-13.648778 132.009276-142.885646 0.127957 0 36.169262-38.003316 36.169262-38.003316 12.326553-13.69143 34.292555-17.999326 54.680417-11.04698 19.918685 6.824389 31.989324 21.966002 30.795055 38.557798l-0.426524 68.542458c-0.511829 153.548753-0.853049 158.624392-3.710762 165.917958z m260.86227-66.537793c-13.222254 5.715426-25.804721 4.350548-35.742737-4.051981-6.440517-5.374206-13.222254-16.335881-102.579098-171.462774l-26.572465-46.235236c-10.151279-16.634448-8.189267-38.387188 4.521158-55.021636 12.241248-16.250576 30.496488-22.307222 46.448498-15.696095 0.853049 0.426524 66.83636 23.757404 66.83636 23.757404 150.392473 52.80371 155.297503 54.808374 161.652715 59.926666 9.767407 8.274572 14.160607 21.326216 12.155943 36.382524-5.843383 43.420175-88.717057 156.235856-126.720374 172.401128z m-68.457152-393.170113c-26.956337 6.184603-41.799383 9.682102-50.116607 12.753077l0.895701-1.364877c-16.805058 4.478505-35.145603-3.32689-45.979321-19.364204-10.407193-15.482833-10.321888-33.652768 0.426524-46.235236 0.469177-0.469177 41.159596-54.168588 41.159597-54.168588 89.953978-119.085589 94.773703-125.227539 101.256872-129.364824 10.407193-6.781737 23.032313-7.165608 35.657432-1.279573 35.61478 16.805058 107.910651 120.791686 112.2612 160.671709v1.364878c0.853049 13.563473-4.265243 24.653105-14.416522 31.264232-6.653779 4.222591-13.136949 6.31256-181.144876 45.723406z m-188.438442-140.923633c2.729756 56.471819-21.411521 63.978647-29.302221 66.409836-7.933352 2.516493-32.202586 9.980669-61.973982-38.387189 0 0-201.404781-317.632657-206.096549-327.400063-2.900365-11.004327 0.725091-23.458837 10.364541-33.610116C254.891143 37.022737 417.396907-8.700669 459.836076 1.919786c13.904693 3.497499 23.458837 12.369205 26.913685 24.695758 2.345884 13.648778 22.179264 308.377079 25.036977 374.531z" fill="#00AEEF" p-id="1166"></path>
  <path d="M100.19407 513.187025c0 211.27005 158.185075 385.604776 362.628457 410.975522v95.879005c-257.171741-25.778308-457.947065-242.856119-457.947064-506.854527 0-263.998408 200.775323-481.076219 457.947064-506.854527v95.879004c-204.443383 25.370746-362.628458 199.705473-362.628457 410.975523M1020.316657 453.733891h-96.184677c-26.899104-187.478607-179.480199-334.404776-369.60796-352.745075V5.313592c242.856119 18.951642 437.925572 208.213333 465.792637 448.420299M1022.76203 545.435383c-15.793035 252.994229-216.313632 455.960199-468.23801 475.625075v-95.675224c199.246965-19.206368 357.228259-179.633035 372.613731-379.949851h95.624279z" fill="#00AEEF" p-id="2034"></path>
</svg>